<svg xmlns="http://www.w3.org/2000/svg" version="1.1" xmlns:xlink="http://www.w3.org/1999/xlink" xmlns:svgjs="http://svgjs.dev/svgjs" width="1500" height="534" viewBox="0 0 1500 534"><g transform="matrix(1,0,0,1,-0.9090909090909918,-0.45201282708745794)"><svg viewBox="0 0 396 141" data-background-color="#ffffff" preserveAspectRatio="xMidYMid meet" height="534" width="1500" xmlns="http://www.w3.org/2000/svg" xmlns:xlink="http://www.w3.org/1999/xlink"><g id="tight-bounds" transform="matrix(1,0,0,1,0.2400000000000091,0.1193517015343275)"><svg viewBox="0 0 395.52 140.76129659693137" height="140.76129659693137" width="395.52"><g><svg viewBox="0 0 395.52 140.76129659693137" height="140.76129659693137" width="395.52"><g transform="matrix(1,0,0,1,0,86.99612836005385)"><svg viewBox="0 0 395.52 53.76516823687752" height="53.76516823687752" width="395.52"><g id="textblocktransform"><svg viewBox="0 0 395.52 53.76516823687752" height="53.76516823687752" width="395.52" id="textblock"><g><svg viewBox="0 0 395.52 53.76516823687752" height="53.76516823687752" width="395.52"><g transform="matrix(1,0,0,1,0,0)"><svg width="395.52" viewBox="4.4 -34.8 260.02000000000004 35.349999999999994" height="53.76516823687752" data-palette-color="#ffaa64"><path d="M23.1 0L19.9 0 12.7-15.45 11.1-15.4 7.25-15.4 7.25 0 4.4 0 4.4-34.25 10.5-34.25Q21.65-34.25 21.65-24.95L21.65-24.95Q21.65-21.6 20.05-19.3 18.45-17 15.45-16L15.45-16 23.1 0ZM10.75-17.8Q14.8-17.8 16.68-19.53 18.55-21.25 18.55-24.95L18.55-24.95Q18.55-28.45 16.7-30.15 14.85-31.85 10.35-31.85L10.35-31.85 7.25-31.85 7.25-17.8 10.75-17.8ZM28.75-34.25L43.3-34.25 43-31.8 31.6-31.8 31.6-18.95 41.45-18.95 41.45-16.55 31.6-16.55 31.6-2.45 43.55-2.45 43.55 0 28.75 0 28.75-34.25ZM59.55-34.8Q61.8-34.8 63.52-34.02 65.25-33.25 66.94-31.65L66.94-31.65 65.39-29.85Q63.95-31.15 62.62-31.73 61.3-32.3 59.64-32.3L59.64-32.3Q55.74-32.3 53.39-28.75 51.05-25.2 51.05-17.15L51.05-17.15Q51.05-9.3 53.37-5.65 55.7-2 59.64-2L59.64-2Q61.55-2 62.84-2.7 64.14-3.4 65.59-4.7L65.59-4.7 67.25-2.9Q64 0.55 59.59 0.55L59.59 0.55Q54.34 0.55 51.17-3.9 47.99-8.35 47.99-17.15L47.99-17.15Q47.99-23.1 49.52-27.05 51.05-31 53.64-32.9 56.24-34.8 59.55-34.8L59.55-34.8ZM72.49-34.25L75.34-34.25 75.34 0 72.49 0 72.49-34.25ZM89.64-34.25Q95.64-34.25 98.59-31.7 101.54-29.15 101.54-24L101.54-24Q101.54-13.4 89.59-13.4L89.59-13.4 86.99-13.4 86.99 0 84.14 0 84.14-34.25 89.64-34.25ZM89.64-15.8Q94.14-15.8 96.32-17.65 98.49-19.5 98.49-23.95L98.49-23.95Q98.49-28.15 96.39-30 94.29-31.85 89.69-31.85L89.69-31.85 86.99-31.85 86.99-15.8 89.64-15.8ZM107.44-34.25L121.99-34.25 121.69-31.8 110.29-31.8 110.29-18.95 120.14-18.95 120.14-16.55 110.29-16.55 110.29-2.45 122.24-2.45 122.24 0 107.44 0 107.44-34.25ZM142.53 0L139.68 0 139.68-34.25 153.98-34.25 153.63-31.8 142.53-31.8 142.53-18.35 152.13-18.35 152.13-15.95 142.53-15.95 142.53 0ZM159.43-34.25L162.28-34.25 162.28 0 159.43 0 159.43-34.25ZM189.88-34.25L189.88 0 186.08 0 173.38-31Q173.78-26.3 173.78-19.35L173.78-19.35 173.78 0 171.08 0 171.08-34.25 174.88-34.25 187.53-3.25Q187.13-9.25 187.13-13.3L187.13-13.3 187.13-34.25 189.88-34.25ZM204.43-34.25Q210.43-34.25 214.05-30.65 217.68-27.05 217.68-17.4L217.68-17.4Q217.68-7.7 214.03-3.85 210.38 0 204.88 0L204.88 0 198.63 0 198.63-34.25 204.43-34.25ZM204.83-31.8L201.48-31.8 201.48-2.4 205.08-2.4Q209.33-2.4 211.98-5.65 214.63-8.9 214.63-17.4L214.63-17.4Q214.63-23.35 213.25-26.53 211.88-29.7 209.78-30.75 207.68-31.8 204.83-31.8L204.83-31.8ZM224.72-34.25L239.27-34.25 238.97-31.8 227.57-31.8 227.57-18.95 237.42-18.95 237.42-16.55 227.57-16.55 227.57-2.45 239.52-2.45 239.52 0 224.72 0 224.72-34.25ZM264.42 0L261.22 0 254.02-15.45 252.42-15.4 248.57-15.4 248.57 0 245.72 0 245.72-34.25 251.82-34.25Q262.97-34.25 262.97-24.95L262.97-24.95Q262.97-21.6 261.37-19.3 259.77-17 256.77-16L256.77-16 264.42 0ZM252.07-17.8Q256.12-17.8 258-19.53 259.87-21.25 259.87-24.95L259.87-24.95Q259.87-28.45 258.02-30.15 256.17-31.85 251.67-31.85L251.67-31.85 248.57-31.85 248.57-17.8 252.07-17.8Z" opacity="1" transform="matrix(1,0,0,1,0,0)" fill="#ffaa64" class="wordmark-text-0" data-fill-palette-color="primary" id="text-0"></path></svg></g></svg></g></svg></g></svg></g><g transform="matrix(1,0,0,1,147.6343014229752,0)"><svg viewBox="0 0 100.25139715404957 74.30346250336474" height="74.30346250336474" width="100.25139715404957"><g><svg xmlns="http://www.w3.org/2000/svg" xmlns:xlink="http://www.w3.org/1999/xlink" version="1.1" x="0" y="0" viewBox="164.5 245 688.1 510" style="enable-background:new 0 0 1000 1000;" xml:space="preserve" height="74.30346250336474" width="100.25139715404957" class="icon-icon-0" data-fill-palette-color="accent" id="icon-0"><g fill="#ffaa64" data-fill-palette-color="accent"><path d="M813.7 711.8L786.8 707C787.1 702.3 787.3 697.2 787.3 691.6 787.4 678.7 786.5 663.7 784 647.8 782.7 639.9 781 631.8 778.7 623.7S773.7 607.5 770.4 599.6 763.3 584.1 759 576.9 750 563 745 556.8C740 550.7 734.8 545.1 729.6 540.2S719.1 530.9 714.1 527.3C709.1 523.6 704.3 520.4 700 517.9 698.9 517.2 697.9 516.6 696.9 516S694.9 514.9 693.9 514.3C692 513.2 690.3 512.3 688.6 511.5 687 510.7 685.6 510 684.3 509.3 683 508.7 682 508.2 681.1 507.8 679.5 507 678.5 506.6 678.4 506.6 678.5 506.7 679.4 507.2 680.9 508.1 681.7 508.6 682.7 509.2 683.9 510 685.1 510.7 686.4 511.6 687.9 512.6S691 514.7 692.8 516C693.7 516.6 694.6 517.3 695.5 518S697.4 519.4 698.4 520.2C702.3 523.2 706.6 526.8 711.1 531 715.6 535.1 720.1 539.9 724.5 545.1 729 550.4 733.3 556.2 737.3 562.5S745 575.6 748.2 582.7 754.1 597.2 756.3 604.8C758.5 612.3 760.2 620 761.4 627.7 762.6 635.3 763.3 642.9 763.7 650.2 764.4 664.9 763.6 678.6 762.2 690.2 761.7 694.5 761.1 698.6 760.4 702.3L201.5 601.6C228.2 453.3 386.9 357.7 556 388.1 725 418.6 840.4 563.5 813.7 711.8" fill="#ffaa64" data-fill-palette-color="accent"></path><path d="M564.4 298.2C543.2 294.4 522.9 308.5 519.1 329.7S529.4 371.2 550.6 375 592.1 364.7 595.9 343.5 585.6 302 564.4 298.2M585.2 325.3C583.6 334.4 574.9 340.4 565.8 338.8S550.7 328.5 552.3 319.4 562.6 304.3 571.7 305.9 586.8 316.2 585.2 325.3" fill="#ffaa64" data-fill-palette-color="accent"></path><path d="M841.6 755H175.5C169.4 755 164.5 750 164.5 744 164.5 737.9 169.5 733 175.5 733H841.6C847.7 733 852.6 738 852.6 744 852.6 750.1 847.7 755 841.6 755" fill="#ffaa64" data-fill-palette-color="accent"></path><path d="M200.8 475.3C206.4 490.2 206.4 503.6 202.3 513.3 198.6 523 190.8 529.1 191.2 529.1 190.7 529.1 193.8 523.1 192.7 513.3 192 503.6 187.2 490.1 181.6 475.3 176 460.4 176 447 180.1 437.3 183.8 427.6 191.6 421.5 191.2 421.5 191.7 421.5 188.6 427.5 189.7 437.3 190.4 447 195.3 460.4 200.8 475.3" fill="#ffaa64" data-fill-palette-color="accent"></path><path d="M221.8 421.3C227.4 436.2 227.4 449.6 223.3 459.3 219.6 469 211.8 475.1 212.2 475.1 211.7 475.1 214.8 469.1 213.7 459.3 213 449.6 208.2 436.1 202.6 421.3 197 406.4 197 393 201.1 383.3 204.8 373.6 212.6 367.5 212.2 367.5 212.7 367.5 209.6 373.5 210.7 383.3 211.4 393 216.3 406.4 221.8 421.3" fill="#ffaa64" data-fill-palette-color="accent"></path><path d="M344.6 298.8C339 313.7 339 327.1 343.1 336.8 346.8 346.5 354.6 352.6 354.2 352.6 354.7 352.6 351.6 346.6 352.7 336.8 353.4 327.1 358.2 313.6 363.8 298.8 369.4 283.9 369.4 270.5 365.3 260.8 361.6 251.1 353.8 245 354.2 245 353.7 245 356.8 251 355.7 260.8 355 270.5 350.2 283.9 344.6 298.8" fill="#ffaa64" data-fill-palette-color="accent"></path></g></svg></g></svg></g><g></g></svg></g><defs></defs></svg><rect width="395.52" height="140.76129659693137" fill="none" stroke="none" visibility="hidden"></rect></g></svg></g></svg>